<?xml version="1.0" encoding="UTF-8" standalone="no"?>
<svg width="93px" height="92px" viewBox="0 0 93 92" version="1.1" xmlns="http://www.w3.org/2000/svg" xmlns:xlink="http://www.w3.org/1999/xlink" xmlns:sketch="http://www.bohemiancoding.com/sketch/ns">
    <!-- Generator: Sketch 3.3.2 (12043) - http://www.bohemiancoding.com/sketch -->
    <title>Fill 2 + Path Copy + Fill 3</title>
    <desc>Created with Sketch.</desc>
    <defs></defs>
    <g id="Search" stroke="none" stroke-width="1" fill="none" fill-rule="evenodd" sketch:type="MSPage">
        <g id="Soch-HD" sketch:type="MSArtboardGroup" transform="translate(-661.000000, -534.000000)">
            <g id="Bitmap" sketch:type="MSLayerGroup" transform="translate(0.000000, 106.000000)">
                <g id="Imported-Layers" transform="translate(372.694172, 36.141524)" sketch:type="MSShapeGroup">
                    <g id="Fill-2-+-Path-Copy-+-Fill-3" transform="translate(295.000000, 398.000000)">
                        <path d="M39.8850789,0.232637639 C18.0298227,0.232637639 0.232627713,17.9436466 0.232627713,39.8867807 C0.232627713,61.8299148 18.0298227,79.5409238 39.8850789,79.5409238 C61.740335,79.5409238 79.53753,61.8299148 79.53753,39.8867807 C79.53753,17.9436466 61.740335,0.232637639 39.8850789,0.232637639 L39.8850789,0.232637639 Z" id="Fill-2" stroke="#F5C800" stroke-width="12"></path>
                        <g id="Path-Copy-+-Fill-3" transform="translate(26.400000, 19.200000)">
                            <path d="M26.7025626,14.0777569 C26.6156209,15.3995616 26.4358631,16.8083118 25.9083387,18.0431712 C24.7616485,22.0085855 22.3836763,26.4146014 20.006879,30.3800157 C17.6289069,34.34543 15.0735267,37.7832973 13.5720205,39.8065398 C10.487941,35.8411255 3.52555802,25.8870544 1.14876073,18.0431712 C0.708177935,16.8083118 0.441478486,15.486507 0.354536816,14.0777569 L0.354536816,13.6371553 C0.354536816,6.32081901 6.25717132,0.419107588 13.4850789,0.419107588 C17.0097412,0.419107588 20.2677041,1.82785774 22.8242591,4.29757651 C25.2938725,6.7614206 26.7025626,10.1123426 26.7025626,13.6371553 L26.7025626,14.0777569 Z" id="Path-Copy" fill="#FFFFFF"></path>
                            <path d="M17.450324,12.3153505 C17.450324,14.5183585 15.6879928,16.2807648 13.4850789,16.2807648 C11.2821649,16.2807648 9.51983375,14.5183585 9.51983375,12.3153505 C9.51983375,10.1123426 11.2821649,8.3499362 13.4850789,8.3499362 C15.6879928,8.3499362 17.450324,10.1123426 17.450324,12.3153505 L17.450324,12.3153505 Z" id="Fill-3" fill="#F5C800"></path>
                        </g>
                    </g>
                </g>
            </g>
        </g>
    </g>
</svg>